<svg width="139" height="61" viewBox="0 0 139 61" fill="none" xmlns="http://www.w3.org/2000/svg">
<path d="M47.574 5.40001L3.6171 37.1719L28.3952 31.0329C28.6581 30.9678 28.9275 31.0009 29.1442 31.1251C29.3608 31.2493 29.5071 31.4543 29.5506 31.695L33.6548 54.3714L47.574 5.40001Z" stroke="white" stroke-width="2" stroke-linecap="round" stroke-linejoin="round"/>
<path d="M55.838 20H55.178V4.6H55.838V20ZM67.4219 8.406C67.4219 6.98333 67.7812 5.95667 68.4999 5.326C69.2185 4.69533 70.3845 4.38 71.9979 4.38C73.1272 4.38 74.0365 4.67333 74.7259 5.26C75.4152 5.84667 75.9139 6.74133 76.2219 7.944L74.1759 9.484H73.0979L75.4739 7.702C75.1659 6.71933 74.7185 6.03 74.1319 5.634C73.5599 5.238 72.8485 5.04 71.9979 5.04C71.4112 5.04 70.9125 5.07667 70.5019 5.15C70.1059 5.22333 69.7025 5.37 69.2919 5.59C68.8959 5.79533 68.5952 6.13267 68.3899 6.602C68.1845 7.07133 68.0819 7.67267 68.0819 8.406C68.0819 9.05133 68.3752 9.62333 68.9619 10.122C69.5632 10.6207 70.2892 11.046 71.1399 11.398C71.9905 11.75 72.8412 12.1093 73.6919 12.476C74.5572 12.8427 75.2832 13.312 75.8699 13.884C76.4712 14.456 76.7719 15.116 76.7719 15.864C76.7719 17.3307 76.4052 18.4233 75.6719 19.142C74.9532 19.8607 73.7139 20.22 71.9539 20.22C70.5165 20.22 69.3872 19.934 68.5659 19.362C67.7445 18.7753 67.1799 17.8733 66.8719 16.656L67.4879 16.392C67.7812 17.58 68.2799 18.4087 68.9839 18.878C69.7025 19.3327 70.6925 19.56 71.9539 19.56C73.3619 19.56 74.4032 19.2887 75.0779 18.746C75.7672 18.2033 76.1119 17.2427 76.1119 15.864C76.1119 15.2187 75.8112 14.6467 75.2099 14.148C74.6232 13.6493 73.8972 13.224 73.0319 12.872C72.1812 12.52 71.3305 12.1607 70.4799 11.794C69.6292 11.4273 68.9032 10.958 68.3019 10.386C67.7152 9.814 67.4219 9.154 67.4219 8.406ZM88.3119 19.34H96.4079L91.7439 6.514L86.8379 20H86.1339L91.7439 4.578L97.3539 20H88.3119V19.34ZM108.022 19.34H116.118L111.454 6.514L106.548 20H105.844L111.454 4.578L117.064 20H108.022V19.34ZM136.883 17.184C136.487 18.152 135.93 18.9 135.211 19.428C134.493 19.956 133.415 20.22 131.977 20.22C130.173 20.22 128.868 19.67 128.061 18.57C127.255 17.4553 126.851 15.7247 126.851 13.378V11.222C126.851 8.87533 127.255 7.152 128.061 6.052C128.868 4.93733 130.173 4.38 131.977 4.38C133.415 4.38 134.493 4.644 135.211 5.172C135.93 5.7 136.487 6.448 136.883 7.416L136.289 7.702C135.952 6.85133 135.475 6.19867 134.859 5.744C134.243 5.27467 133.283 5.04 131.977 5.04C131.259 5.04 130.643 5.13533 130.129 5.326C129.616 5.502 129.154 5.81 128.743 6.25C128.333 6.69 128.025 7.328 127.819 8.164C127.614 8.98533 127.511 10.0047 127.511 11.222V13.378C127.511 14.5953 127.614 15.622 127.819 16.458C128.025 17.2793 128.333 17.91 128.743 18.35C129.154 18.79 129.616 19.1053 130.129 19.296C130.643 19.472 131.259 19.56 131.977 19.56C133.283 19.56 134.243 19.3327 134.859 18.878C135.475 18.4087 135.952 17.7487 136.289 16.898L136.883 17.184Z" fill="white"/>
<path d="M55.838 20V20.75H56.588V20H55.838ZM55.178 20H54.428V20.75H55.178V20ZM55.178 4.6V3.85H54.428V4.6H55.178ZM55.838 4.6H56.588V3.85H55.838V4.6ZM55.838 19.25H55.178V20.75H55.838V19.25ZM55.928 20V4.6H54.428V20H55.928ZM55.178 5.35H55.838V3.85H55.178V5.35ZM55.088 4.6V20H56.588V4.6H55.088ZM68.4999 5.326L68.0052 4.76228L68.0052 4.76228L68.4999 5.326ZM74.7259 5.26L74.2398 5.83115L74.2398 5.83115L74.7259 5.26ZM76.2219 7.944L76.6729 8.54323L77.0725 8.24245L76.9484 7.75793L76.2219 7.944ZM74.1759 9.484V10.234H74.4266L74.6269 10.0832L74.1759 9.484ZM73.0979 9.484L72.6479 8.884L70.8479 10.234H73.0979V9.484ZM75.4739 7.702L75.9239 8.302L76.3482 7.98378L76.1895 7.47769L75.4739 7.702ZM74.1319 5.634L73.7049 6.25069L73.7123 6.25564L74.1319 5.634ZM70.5019 5.15L70.37 4.41166L70.3653 4.41254L70.5019 5.15ZM69.2919 5.59L69.6371 6.25588L69.646 6.25111L69.2919 5.59ZM68.3899 6.602L69.077 6.90261L69.077 6.90261L68.3899 6.602ZM68.9619 10.122L68.4761 10.6935L68.4831 10.6993L68.9619 10.122ZM71.1399 11.398L71.4266 10.705L71.4266 10.705L71.1399 11.398ZM73.6919 12.476L73.395 13.1648L73.3992 13.1666L73.6919 12.476ZM75.8699 13.884L75.3462 14.421L75.3529 14.4274L75.8699 13.884ZM75.6719 19.142L75.1469 18.6063L75.1415 18.6117L75.6719 19.142ZM68.5659 19.362L68.1299 19.9723L68.1372 19.9775L68.5659 19.362ZM66.8719 16.656L66.5764 15.9666L65.9877 16.219L66.1448 16.84L66.8719 16.656ZM67.4879 16.392L68.216 16.2122L68.0043 15.3547L67.1924 15.7026L67.4879 16.392ZM68.9839 18.878L68.5678 19.502L68.5753 19.507L68.5829 19.5118L68.9839 18.878ZM75.0779 18.746L74.6139 18.1567L74.6078 18.1616L75.0779 18.746ZM75.2099 14.148L74.7241 14.7195L74.7311 14.7253L75.2099 14.148ZM73.0319 12.872L72.7451 13.565L72.7493 13.5667L73.0319 12.872ZM70.4799 11.794L70.7767 11.1053L70.4799 11.794ZM68.3019 10.386L67.7782 10.923L67.7849 10.9294L68.3019 10.386ZM68.1719 8.406C68.1719 7.0926 68.504 6.32019 68.9946 5.88972L68.0052 4.76228C67.0584 5.59314 66.6719 6.87406 66.6719 8.406H68.1719ZM68.9946 5.88972C69.5092 5.43807 70.4511 5.13 71.9979 5.13V3.63C70.318 3.63 68.9278 3.95259 68.0052 4.76228L68.9946 5.88972ZM71.9979 5.13C72.9946 5.13 73.7171 5.38636 74.2398 5.83115L75.2119 4.68885C74.3559 3.9603 73.2598 3.63 71.9979 3.63V5.13ZM74.2398 5.83115C74.7745 6.28624 75.2118 7.02307 75.4953 8.13007L76.9484 7.75793C76.6159 6.4596 76.0559 5.40709 75.2119 4.68884L74.2398 5.83115ZM75.7708 7.34477L73.7248 8.88477L74.6269 10.0832L76.6729 8.54323L75.7708 7.34477ZM74.1759 8.734H73.0979V10.234H74.1759V8.734ZM73.5479 10.084L75.9239 8.302L75.0239 7.102L72.6479 8.884L73.5479 10.084ZM76.1895 7.47769C75.8531 6.40435 75.3306 5.53825 74.5515 5.01236L73.7123 6.25564C74.1065 6.52175 74.4786 7.03432 74.7582 7.92631L76.1895 7.47769ZM74.5588 5.01735C73.8357 4.5168 72.9667 4.29 71.9979 4.29V5.79C72.7304 5.79 73.284 5.9592 73.705 6.25064L74.5588 5.01735ZM71.9979 4.29C71.3833 4.29 70.8377 4.32816 70.37 4.41168L70.6337 5.88832C70.9873 5.82517 71.4391 5.79 71.9979 5.79V4.29ZM70.3653 4.41254C69.8824 4.50196 69.4061 4.67798 68.9377 4.92889L69.646 6.25111C69.999 6.06202 70.3293 5.94471 70.6384 5.88746L70.3653 4.41254ZM68.9466 4.92418C68.376 5.22006 67.9661 5.69935 67.7027 6.30139L69.077 6.90261C69.2243 6.56599 69.4157 6.37061 69.6371 6.25582L68.9466 4.92418ZM67.7027 6.30139C67.4421 6.89715 67.3319 7.61046 67.3319 8.406H68.8319C68.8319 7.73488 68.927 7.24551 69.077 6.90261L67.7027 6.30139ZM67.3319 8.406C67.3319 9.31422 67.7575 10.0826 68.4761 10.6935L69.4476 9.55054C68.9929 9.16407 68.8319 8.78845 68.8319 8.406H67.3319ZM68.4831 10.6993C69.1515 11.2536 69.945 11.7153 70.8531 12.091L71.4266 10.705C70.6333 10.3767 69.9749 9.98772 69.4406 9.54468L68.4831 10.6993ZM70.8531 12.091C71.7004 12.4416 72.5477 12.7995 73.395 13.1647L73.9887 11.7873C73.1347 11.4192 72.2807 11.0584 71.4266 10.705L70.8531 12.091ZM73.3992 13.1666C74.1912 13.5021 74.8355 13.9229 75.3463 14.421L76.3934 13.347C75.7309 12.7011 74.9232 12.1832 73.9845 11.7854L73.3992 13.1666ZM75.3529 14.4274C75.8235 14.875 76.0219 15.345 76.0219 15.864H77.5219C77.5219 14.887 77.1189 14.037 76.3868 13.3406L75.3529 14.4274ZM76.0219 15.864C76.0219 17.2164 75.6841 18.0799 75.1469 18.6063L76.1968 19.6777C77.1263 18.7668 77.5219 17.445 77.5219 15.864H76.0219ZM75.1415 18.6117C74.6366 19.1166 73.6502 19.47 71.9539 19.47V20.97C73.7775 20.97 75.2697 20.6048 76.2022 19.6723L75.1415 18.6117ZM71.9539 19.47C70.6057 19.47 69.6461 19.2004 68.9945 18.7465L68.1372 19.9775C69.1283 20.6676 70.4273 20.97 71.9539 20.97V19.47ZM69.0018 18.7517C68.3576 18.2915 67.8744 17.5607 67.5989 16.472L66.1448 16.84C66.4853 18.186 67.1315 19.2591 68.1299 19.9723L69.0018 18.7517ZM67.1673 17.3454L67.7833 17.0814L67.1924 15.7026L66.5764 15.9666L67.1673 17.3454ZM66.7597 16.5718C67.0781 17.8614 67.6507 18.8906 68.5678 19.502L69.3999 18.254C68.9091 17.9268 68.4842 17.2986 68.216 16.2122L66.7597 16.5718ZM68.5829 19.5118C69.4662 20.0707 70.6149 20.31 71.9539 20.31V18.81C70.7702 18.81 69.9388 18.5947 69.3848 18.2442L68.5829 19.5118ZM71.9539 20.31C73.4335 20.31 74.6791 20.0292 75.5479 19.3304L74.6078 18.1616C74.1273 18.5481 73.2902 18.81 71.9539 18.81V20.31ZM75.5418 19.3353C76.4951 18.5848 76.8619 17.3401 76.8619 15.864H75.3619C75.3619 17.1452 75.0393 17.8218 74.6139 18.1567L75.5418 19.3353ZM76.8619 15.864C76.8619 14.9484 76.4219 14.1788 75.6886 13.5707L74.7311 14.7253C75.2004 15.1145 75.3619 15.4889 75.3619 15.864H76.8619ZM75.6956 13.5765C75.0368 13.0166 74.2384 12.5531 73.3145 12.1773L72.7493 13.5667C73.556 13.8949 74.2095 14.2821 74.7241 14.7195L75.6956 13.5765ZM73.3186 12.179C72.4714 11.8284 71.6241 11.4705 70.7767 11.1053L70.183 12.4827C71.037 12.8508 71.891 13.2116 72.7451 13.565L73.3186 12.179ZM70.7767 11.1053C69.998 10.7696 69.3489 10.3469 68.8188 9.84258L67.7849 10.9294C68.4575 11.5691 69.2604 12.0851 70.183 12.4827L70.7767 11.1053ZM68.8254 9.849C68.3683 9.40328 68.1719 8.93144 68.1719 8.406H66.6719C66.6719 9.37656 67.0621 10.2247 67.7783 10.923L68.8254 9.849ZM88.3119 19.34V18.59H87.5619V19.34H88.3119ZM96.4079 19.34V20.09H97.4787L97.1127 19.0837L96.4079 19.34ZM91.7439 6.514L92.4487 6.25769L91.744 4.31976L91.0391 6.2576L91.7439 6.514ZM86.8379 20V20.75H87.3631L87.5427 20.2564L86.8379 20ZM86.1339 20L85.4291 19.7436L85.063 20.75H86.1339V20ZM91.7439 4.578L92.4487 4.32161L91.7439 2.38406L91.0391 4.32161L91.7439 4.578ZM97.3539 20V20.75H98.4248L98.0587 19.7436L97.3539 20ZM88.3119 20H87.5619V20.75H88.3119V20ZM88.3119 20.09H96.4079V18.59H88.3119V20.09ZM97.1127 19.0837L92.4487 6.25769L91.039 6.77031L95.703 19.5963L97.1127 19.0837ZM91.0391 6.2576L86.1331 19.7436L87.5427 20.2564L92.4487 6.7704L91.0391 6.2576ZM86.8379 19.25H86.1339V20.75H86.8379V19.25ZM86.8387 20.2564L92.4487 4.83439L91.0391 4.32161L85.4291 19.7436L86.8387 20.2564ZM91.0391 4.83439L96.6491 20.2564L98.0587 19.7436L92.4487 4.32161L91.0391 4.83439ZM97.3539 19.25H88.3119V20.75H97.3539V19.25ZM89.0619 20V19.34H87.5619V20H89.0619ZM108.022 19.34V18.59H107.272V19.34H108.022ZM116.118 19.34V20.09H117.188L116.823 19.0837L116.118 19.34ZM111.454 6.514L112.158 6.25769L111.454 4.31976L110.749 6.2576L111.454 6.514ZM106.548 20V20.75H107.073L107.252 20.2564L106.548 20ZM105.844 20L105.139 19.7436L104.773 20.75H105.844V20ZM111.454 4.578L112.158 4.32161L111.454 2.38406L110.749 4.32161L111.454 4.578ZM117.064 20V20.75H118.135L117.768 19.7436L117.064 20ZM108.022 20H107.272V20.75H108.022V20ZM108.022 20.09H116.118V18.59H108.022V20.09ZM116.823 19.0837L112.158 6.25769L110.749 6.77031L115.413 19.5963L116.823 19.0837ZM110.749 6.2576L105.843 19.7436L107.252 20.2564L112.158 6.7704L110.749 6.2576ZM106.548 19.25H105.844V20.75H106.548V19.25ZM106.548 20.2564L112.158 4.83439L110.749 4.32161L105.139 19.7436L106.548 20.2564ZM110.749 4.83439L116.359 20.2564L117.768 19.7436L112.158 4.32161L110.749 4.83439ZM117.064 19.25H108.022V20.75H117.064V19.25ZM108.772 20V19.34H107.272V20H108.772ZM136.883 17.184L137.578 17.468L137.845 16.8145L137.209 16.5082L136.883 17.184ZM135.211 19.428L134.767 18.8236L134.767 18.8236L135.211 19.428ZM128.061 18.57L127.454 19.0097L127.457 19.0135L128.061 18.57ZM128.061 6.052L128.666 6.49553L128.669 6.4917L128.061 6.052ZM135.211 5.172L134.767 5.77641L134.767 5.77641L135.211 5.172ZM136.883 7.416L137.209 8.09175L137.845 7.78547L137.578 7.13202L136.883 7.416ZM136.289 7.702L135.592 7.97847L135.889 8.72714L136.615 8.37775L136.289 7.702ZM134.859 5.744L134.405 6.34064L134.414 6.34743L134.859 5.744ZM130.129 5.326L130.373 6.03546L130.382 6.03238L130.391 6.02907L130.129 5.326ZM128.743 6.25L129.292 6.76174L129.292 6.76174L128.743 6.25ZM127.819 8.164L128.547 8.3459L128.548 8.34289L127.819 8.164ZM127.819 16.458L127.091 16.6369L127.092 16.6399L127.819 16.458ZM128.743 18.35L128.195 18.8617L128.195 18.8617L128.743 18.35ZM130.129 19.296L129.868 19.9991L129.877 20.0024L129.886 20.0055L130.129 19.296ZM134.859 18.878L135.305 19.4815L135.314 19.4746L134.859 18.878ZM136.289 16.898L136.615 16.2222L135.889 15.8729L135.592 16.6215L136.289 16.898ZM136.189 16.9C135.836 17.7626 135.357 18.3906 134.767 18.8236L135.655 20.0324C136.503 19.4094 137.138 18.5414 137.578 17.468L136.189 16.9ZM134.767 18.8236C134.235 19.2149 133.345 19.47 131.977 19.47V20.97C133.485 20.97 134.751 20.6971 135.655 20.0324L134.767 18.8236ZM131.977 19.47C130.328 19.47 129.288 18.9748 128.666 18.1265L127.457 19.0135C128.448 20.3652 130.019 20.97 131.977 20.97V19.47ZM128.669 18.1303C128 17.2059 127.601 15.6667 127.601 13.378H126.101C126.101 15.7826 126.509 17.7048 127.454 19.0097L128.669 18.1303ZM127.601 13.378V11.222H126.101V13.378H127.601ZM127.601 11.222C127.601 8.93197 128.001 7.40329 128.666 6.49552L127.457 5.60848C126.509 6.90071 126.101 8.81869 126.101 11.222H127.601ZM128.669 6.4917C129.293 5.63012 130.332 5.13 131.977 5.13V3.63C130.015 3.63 128.444 4.24454 127.454 5.6123L128.669 6.4917ZM131.977 5.13C133.345 5.13 134.235 5.38512 134.767 5.77641L135.655 4.56759C134.751 3.90288 133.485 3.63 131.977 3.63V5.13ZM134.767 5.77641C135.357 6.20944 135.836 6.8374 136.189 7.69997L137.578 7.13202C137.138 6.0586 136.503 5.19056 135.655 4.56759L134.767 5.77641ZM136.558 6.74025L135.964 7.02625L136.615 8.37775L137.209 8.09175L136.558 6.74025ZM136.987 7.42553C136.608 6.47017 136.054 5.69355 135.305 5.14057L134.414 6.34743C134.897 6.70378 135.296 7.2325 135.592 7.97847L136.987 7.42553ZM135.314 5.14743C134.504 4.53065 133.345 4.29 131.977 4.29V5.79C133.221 5.79 133.982 6.01868 134.405 6.34057L135.314 5.14743ZM131.977 4.29C131.196 4.29 130.487 4.39322 129.868 4.62293L130.391 6.02907C130.799 5.87745 131.322 5.79 131.977 5.79V4.29ZM129.886 4.61654C129.244 4.83664 128.68 5.21832 128.195 5.73826L129.292 6.76174C129.628 6.40168 129.988 6.16736 130.373 6.03546L129.886 4.61654ZM128.195 5.73826C127.667 6.30375 127.315 7.07496 127.091 7.98511L128.548 8.34289C128.735 7.58104 128.998 7.07625 129.292 6.76174L128.195 5.73826ZM127.092 7.9821C126.867 8.88259 126.761 9.96762 126.761 11.222H128.261C128.261 10.0417 128.361 9.08808 128.547 8.3459L127.092 7.9821ZM126.761 11.222V13.378H128.261V11.222H126.761ZM126.761 13.378C126.761 14.6329 126.867 15.7238 127.091 16.6369L128.548 16.2791C128.361 15.5202 128.261 14.5577 128.261 13.378H126.761ZM127.092 16.6399C127.316 17.5372 127.67 18.2986 128.195 18.8617L129.292 17.8383C128.996 17.5214 128.733 17.0215 128.547 16.2761L127.092 16.6399ZM128.195 18.8617C128.677 19.3784 129.235 19.7639 129.868 19.9991L130.391 18.5929C129.997 18.4468 129.631 18.2016 129.292 17.8383L128.195 18.8617ZM129.886 20.0055C130.499 20.2154 131.201 20.31 131.977 20.31V18.81C131.316 18.81 130.787 18.7286 130.373 18.5865L129.886 20.0055ZM131.977 20.31C133.341 20.31 134.497 20.0778 135.305 19.4814L134.414 18.2746C133.99 18.5876 133.224 18.81 131.977 18.81V20.31ZM135.314 19.4746C136.057 18.9086 136.608 18.1287 136.987 17.1745L135.592 16.6215C135.296 17.3687 134.894 17.9087 134.405 18.2814L135.314 19.4746ZM135.964 17.5738L136.558 17.8598L137.209 16.5082L136.615 16.2222L135.964 17.5738Z" fill="white"/>
<path d="M62.8193 31.9873H59.958V35H58.7227V27.8906H63.2393V28.8867H59.958V31.001H62.8193V31.9873ZM67.8951 30.8008C67.7389 30.7747 67.5777 30.7617 67.4117 30.7617C66.8681 30.7617 66.5019 30.9701 66.3131 31.3867V35H65.1266V29.7168H66.2594L66.2887 30.3076C66.5751 29.8486 66.9723 29.6191 67.4801 29.6191C67.6493 29.6191 67.7893 29.6419 67.9 29.6875L67.8951 30.8008ZM69.3967 32.3096C69.3967 31.792 69.4992 31.3265 69.7043 30.9131C69.9094 30.4964 70.1975 30.1774 70.5686 29.9561C70.9396 29.7314 71.3661 29.6191 71.8479 29.6191C72.5607 29.6191 73.1385 29.8486 73.5813 30.3076C74.0272 30.7666 74.2681 31.3753 74.3039 32.1338L74.3088 32.4121C74.3088 32.9329 74.2079 33.3984 74.0061 33.8086C73.8075 34.2188 73.521 34.5361 73.1467 34.7607C72.7756 34.9854 72.3459 35.0977 71.8576 35.0977C71.1122 35.0977 70.5148 34.8503 70.0656 34.3555C69.6197 33.8574 69.3967 33.195 69.3967 32.3682V32.3096ZM70.5832 32.4121C70.5832 32.9557 70.6955 33.3822 70.9201 33.6914C71.1447 33.9974 71.4572 34.1504 71.8576 34.1504C72.258 34.1504 72.5689 33.9941 72.7902 33.6816C73.0148 33.3691 73.1271 32.9118 73.1271 32.3096C73.1271 31.7757 73.0116 31.3525 72.7805 31.04C72.5526 30.7275 72.2417 30.5713 71.8479 30.5713C71.4605 30.5713 71.1529 30.7259 70.925 31.0352C70.6971 31.3411 70.5832 31.8001 70.5832 32.4121ZM77.5633 29.7168L77.5975 30.3271C77.9881 29.8551 78.5008 29.6191 79.1355 29.6191C80.2358 29.6191 80.7957 30.249 80.8152 31.5088V35H79.6287V31.5771C79.6287 31.2419 79.5555 30.9945 79.409 30.835C79.2658 30.6722 79.0298 30.5908 78.701 30.5908C78.2225 30.5908 77.866 30.8073 77.6316 31.2402V35H76.4451V29.7168H77.5633ZM84.6654 28.4326V29.7168H85.598V30.5957H84.6654V33.5449C84.6654 33.7467 84.7045 33.8932 84.7826 33.9844C84.864 34.0723 85.0072 34.1162 85.2123 34.1162C85.349 34.1162 85.4874 34.0999 85.6273 34.0674V34.9854C85.3572 35.0602 85.0967 35.0977 84.8461 35.0977C83.9346 35.0977 83.4789 34.5947 83.4789 33.5889V30.5957H82.6098V29.7168H83.4789V28.4326H84.6654ZM89.9609 32.4561H87.3975V31.499H89.9609V32.4561ZM96.36 31.8262H93.44V34.0137H96.8531V35H92.2047V27.8906H96.8189V28.8867H93.44V30.8496H96.36V31.8262ZM99.9953 29.7168L100.029 30.3271C100.42 29.8551 100.933 29.6191 101.568 29.6191C102.668 29.6191 103.228 30.249 103.247 31.5088V35H102.061V31.5771C102.061 31.2419 101.987 30.9945 101.841 30.835C101.698 30.6722 101.462 30.5908 101.133 30.5908C100.654 30.5908 100.298 30.8073 100.064 31.2402V35H98.8771V29.7168H99.9953ZM105.388 32.3193C105.388 31.5055 105.577 30.8529 105.955 30.3613C106.332 29.8665 106.839 29.6191 107.473 29.6191C108.033 29.6191 108.486 29.8145 108.831 30.2051V27.5H110.017V35H108.943L108.885 34.4531C108.53 34.8828 108.056 35.0977 107.464 35.0977C106.845 35.0977 106.344 34.8486 105.96 34.3506C105.579 33.8525 105.388 33.1755 105.388 32.3193ZM106.575 32.4219C106.575 32.959 106.678 33.3789 106.883 33.6816C107.091 33.9811 107.386 34.1309 107.766 34.1309C108.251 34.1309 108.606 33.9144 108.831 33.4814V31.2256C108.613 30.8024 108.261 30.5908 107.776 30.5908C107.392 30.5908 107.096 30.7438 106.888 31.0498C106.679 31.3525 106.575 31.8099 106.575 32.4219ZM115.823 32.3193C115.823 31.5055 116.012 30.8529 116.39 30.3613C116.767 29.8665 117.273 29.6191 117.908 29.6191C118.468 29.6191 118.921 29.8145 119.266 30.2051V27.5H120.452V35H119.378L119.319 34.4531C118.965 34.8828 118.491 35.0977 117.898 35.0977C117.28 35.0977 116.779 34.8486 116.395 34.3506C116.014 33.8525 115.823 33.1755 115.823 32.3193ZM117.01 32.4219C117.01 32.959 117.112 33.3789 117.317 33.6816C117.526 33.9811 117.82 34.1309 118.201 34.1309C118.686 34.1309 119.041 33.9144 119.266 33.4814V31.2256C119.048 30.8024 118.696 30.5908 118.211 30.5908C117.827 30.5908 117.531 30.7438 117.322 31.0498C117.114 31.3525 117.01 31.8099 117.01 32.4219ZM125.167 35.0977C124.415 35.0977 123.804 34.8617 123.336 34.3896C122.87 33.9144 122.637 33.2829 122.637 32.4951V32.3486C122.637 31.8213 122.738 31.3509 122.94 30.9375C123.145 30.5208 123.432 30.1969 123.799 29.9658C124.167 29.7347 124.577 29.6191 125.03 29.6191C125.749 29.6191 126.304 29.8486 126.695 30.3076C127.089 30.7666 127.286 31.416 127.286 32.2559V32.7344H123.834C123.869 33.1706 124.014 33.5156 124.268 33.7695C124.525 34.0234 124.848 34.1504 125.235 34.1504C125.779 34.1504 126.221 33.9307 126.563 33.4912L127.203 34.1016C126.991 34.4173 126.708 34.6631 126.353 34.8389C126.002 35.0114 125.606 35.0977 125.167 35.0977ZM125.025 30.5713C124.699 30.5713 124.436 30.6852 124.234 30.9131C124.035 31.141 123.908 31.4583 123.853 31.8652H126.114V31.7773C126.088 31.3802 125.982 31.0807 125.796 30.8789C125.611 30.6738 125.354 30.5713 125.025 30.5713ZM131.155 33.4961L132.274 29.7168H133.499L131.668 35H130.638L128.792 29.7168H130.023L131.155 33.4961Z" fill="white"/>
</svg>
